<?xml version="1.0" standalone="no"?><!DOCTYPE svg PUBLIC "-//W3C//DTD SVG 1.1//EN" "http://www.w3.org/Graphics/SVG/1.1/DTD/svg11.dtd"><svg t="1555190170135" class="icon" style="" viewBox="0 0 1024 1024" version="1.1" xmlns="http://www.w3.org/2000/svg" p-id="7108" xmlns:xlink="http://www.w3.org/1999/xlink" width="200" height="200"><defs><style type="text/css"></style></defs><path d="M619.114 785.025c-14.931-34.881-21.391-67.937-16.538-104.512 5.604-42.276 15.689-82.62 41.804-115.741 32.411-41.103 67.781-80.117 104.217-117.778 46.247-47.804 90.725-96.558 119.436-157.353 8.265-17.493 14.705-35.847 21.979-53.814l-5.567-3.085c-5.382 6.334-12.209 11.931-15.906 19.133-17.439 33.918-44.455 58.694-76.887 76.529-37.354 20.542-76.939 36.972-114.886 56.498-68.297 35.141-107.406 92.96-113.447 168.037-4.073 50.518 2.774 102.047 6.333 153.007 4.329 61.889 33.728 112.663 74.305 157.761 4.91 5.462 11.263 9.633 16.945 14.402-5.025-12.764-11.499-23.326-18.021-33.842-18.521-29.89-10.629-53.214 23.515-58.45 28.617-4.377 51.083-15.407 71.325-35.706 18.795-18.847 43.251-15.453 61.861 4.881 4.383 4.793 9.823 8.633 18.315 15.969-12.266-37.613-34.132-59.607-67.842-65.388-64.67-11.106-105.869 20.239-130.943 79.458zM547.481 451.869l7.217-2.924c-7.541-21.015-12.94-43.141-23.058-62.828-23.503-45.738-64.677-75.279-104.528-104.972-63.386-47.22-122.097-98.729-166.226-165.057-20.695-31.097-40.675-62.667-60.98-94.020-0.006 14.665 2.531 28.47 5.338 42.215 11.086 54.379 20.228 109.247 33.854 162.992 21.287 83.975 72.671 135.63 162.746 144.293 23.111 2.219 46.334 10.059 68.001 18.965 31.149 12.817 58.078 32.677 77.65 61.338zM154.55 335.269l-2.484 3.604c1.421 2.575 2.236 5.876 4.34 7.63 13.669 11.47 27.267 23.091 41.55 33.793 28.279 21.193 56.233 42.959 85.689 62.425 46.797 30.926 98.269 47.562 154.976 40.034 35.911-4.766 71.049-7.587 104.891 11.637-4.383-42.567-39.353-80.701-82.013-86.132-38.342-4.892-77.211-6.231-115.893-7.713-56.656-2.163-109.247-17.185-157.986-46.035-10.976-6.487-22.034-12.837-33.058-19.241zM516.093 514.011l-2.455-6.215c-5.691-1.631-11.306-3.645-17.091-4.827-36.549-7.462-73.703-15.178-110.288-4.21-27.664 8.289-54.086 20.995-80.598 32.78-45.534 20.239-88.613 46.793-139.858 51.883-6.521 0.645-12.668 5.021-18.985 7.667l1.081 5.937c25.348 1.21 50.767 4.212 76.030 3.261 56.317-2.129 115.010 2.544 168.089-12.234 44.753-12.466 82.96-48.45 124.076-74.022zM765.878 992.494l1.38-5.083c-26.836-20.026-53.789-39.917-80.486-60.124-51.421-38.923-94.602-84.41-115.075-147.441-5.526-17.029-10.736-34.265-14.637-51.729-3.748-16.797-5.628-34.014-8.326-51.050-13.191 45.051-9.938 90.259-0.449 138.893-10.26-3.152-16.349-5.312-22.581-6.863-14.254-3.542-28.546-9.251-42.911-9.552-20.3-0.422-35.237 12.303-43.283 30.157-7.205 15.991 0.207 30.11 11.876 42.009 17.507 17.873 40.349 21.285 65.556 22.228-4.759-7.783-12.46-12.161-18.608-18.125-10.825-10.492-9.089-21.874-0.481-33.335 8.578-11.445 18.413-11.185 29.377-4.279 7.839 4.944 16.174 9.302 23.248 15.168 16.299 13.509 30.682 29.703 48.133 41.367 39.532 26.446 80.172 51.263 120.933 75.773 14.586 8.765 30.843 14.735 46.336 21.993zM269.477 789.51c18.183-9.417 36.358-18.846 54.548-28.235 36.317-18.754 72.999-36.862 108.892-56.401 54.727-29.794 68.346-81.479 73.984-139.381-18.752 6.436-36.031 9.937-50.758 18.071-16.793 9.27-34.167 20.3-46.197 34.793-22.634 27.282-40.549 58.434-62.483 86.357-14.606 18.593-30.009 40.402-50.157 49.625-17.846 8.171-21.287 20.741-27.834 35.182zM561.554 395.73c1.062-0.933 2.553-1.591 2.789-2.572 0.933-3.447 1.478-7.42 1.526-11.508 3.161-59.772-13.435-114.753-54.884-162.735-36.437-42.175-64.522-88.87-57.891-148.517 0.412-3.7-1.436-7.648-3.011-15.223-3.375 5.838-5.338 8.062-6.044 10.643-4.998 18.043-7.703 35.21-3.535 54.993 4.752 22.526-0.327 46.933 1.618 70.301 2.764 33.161 11.463 64.432 35.619 89.815 17.569 18.459 34.72 37.586 49.794 58.091 12.99 17.668 22.785 37.69 34.028 56.726zM621.885 371.262l7.596 5.012c37.751-21.473 75.869-42.31 113.078-64.677 15.685-9.431 20.519-26.188 22.427-46.284-4.669 3.277-6.997 5.356-9.678 6.71-7.463 3.786-15.088 7.289-22.641 10.898-1.711-8.144-4.462-16.241-4.946-24.463-1.228-20.851-29.654-49.286-51.573-51.001l11.615 27.236-83.116-21.226c31.239 53.381 59.562 101.532 17.235 157.795zM855.761 400.247c-41.884 50.972-110.953 68.048-151.394 122.115 44.425 6.447 134.302-42.045 151.394-122.115zM760.426 559.27l-2.438-7.804c-27.932 3.542-55.94 6.643-83.756 10.91-7.58 1.162-16.645 9.142-7.222 14.886 12.988 7.921 30 15.366 44.215 13.724 19.586-2.257 41.55-8.397 49.205-31.724zM695.238 615.766c-12.595-10.701-48.475-11.705-57.113-3.442-16.077 15.371-11.776 33.761 9.724 39.333 3.409 0.881 11.294-2.396 11.499-4.307 2.071-20.524 18.476-25.193 35.895-31.585z" fill="#2c2c2c" p-id="7109"></path><path d="M619.114 785.025c25.071-59.223 66.272-90.569 130.96-79.458 33.713 5.785 55.573 27.779 67.842 65.388-8.492-7.344-13.92-11.18-18.315-15.969-18.608-20.339-43.065-23.728-61.861-4.881-20.245 20.3-42.721 31.327-71.325 35.706-34.149 5.228-42.045 28.56-23.515 58.45 6.522 10.526 12.988 21.074 18.021 33.842-5.686-4.766-12.037-8.941-16.945-14.402-40.582-45.097-69.984-95.871-74.305-157.761-3.555-50.971-10.401-102.493-6.333-153.007 6.044-75.076 45.154-132.893 113.447-168.037 37.946-19.529 77.539-35.952 114.886-56.498 32.425-17.837 59.451-42.601 76.887-76.529 3.7-7.197 10.521-12.799 15.906-19.133l5.567 3.085c-7.274 17.959-13.707 36.316-21.979 53.814-28.722 60.803-73.196 109.556-119.436 157.353-36.432 37.651-71.788 76.669-104.217 117.778-26.116 33.116-36.204 73.459-41.804 115.741-4.859 36.577 1.589 69.633 16.524 104.512zM547.481 451.869c-19.58-28.661-46.501-48.514-77.65-61.344-21.664-8.919-44.896-16.749-68.001-18.965-90.075-8.665-141.45-60.321-162.746-144.293-13.627-53.733-22.764-108.61-33.854-162.992-2.8-13.751-5.357-27.555-5.338-42.215 20.305 31.354 40.292 62.927 60.98 94.020 44.133 66.323 102.847 117.845 166.226 165.057 39.849 29.686 81.026 59.238 104.528 104.972 10.121 19.698 15.521 41.818 23.058 62.828l-7.217 2.926z" fill="#2c2c2c" p-id="7110"></path><path d="M154.55 335.269c11.022 6.406 22.081 12.747 33.055 19.241 48.738 28.853 101.328 43.868 157.986 46.035 38.688 1.477 77.553 2.827 115.893 7.713 42.66 5.441 77.634 43.57 82.013 86.132-33.842-19.227-68.978-16.405-104.891-11.637-56.708 7.525-108.183-9.107-154.976-40.034-29.45-19.466-57.412-41.236-85.689-62.425-14.274-10.7-27.879-22.3-41.55-33.793-2.106-1.764-2.921-5.046-4.34-7.63l2.49-3.604zM516.093 514.011c-41.109 25.577-79.323 61.561-124.077 74.022-53.072 14.78-111.767 10.111-168.089 12.234-25.262 0.957-50.678-2.053-76.030-3.261l-1.081-5.937c6.322-2.65 12.47-7.021 18.985-7.667 51.241-5.076 94.325-31.634 139.858-51.883 26.511-11.78 52.933-24.489 80.598-32.78 36.591-10.97 73.734-3.252 110.288 4.21 5.785 1.181 11.401 3.199 17.091 4.827l2.46 6.215zM765.878 992.494c-15.491-7.255-31.751-13.227-46.334-21.993-40.767-24.507-81.403-49.33-120.933-75.773-17.45-11.673-31.839-27.857-48.133-41.367-7.071-5.876-15.417-10.23-23.248-15.168-10.97-6.913-20.795-7.157-29.377 4.279-8.598 11.461-10.341 22.842 0.481 33.335 6.15 5.97 13.853 10.341 18.608 18.125-25.207-0.937-48.044-4.356-65.556-22.228-11.667-11.908-19.081-26.022-11.876-42.009 8.042-17.854 22.973-30.583 43.283-30.157 14.374 0.305 28.65 6.009 42.911 9.552 6.236 1.551 12.323 3.716 22.581 6.863-9.492-48.629-12.747-93.837 0.449-138.893 2.695 17.028 4.57 34.253 8.326 51.050 3.898 17.462 9.1 34.692 14.637 51.729 20.461 63.037 63.653 108.521 115.075 147.441 26.698 20.213 53.644 40.091 80.486 60.124l-1.385 5.083zM269.477 789.51c6.553-14.441 9.988-27.009 27.831-35.177 20.141-9.218 35.552-31.031 50.157-49.625 21.936-27.926 39.849-59.071 62.483-86.357 12.018-14.499 29.396-25.518 46.197-34.793 14.727-8.134 32.005-11.636 50.758-18.071-5.638 57.906-19.259 109.597-73.984 139.381-35.895 19.543-72.578 37.638-108.892 56.401-18.194 9.394-36.368 18.823-54.545 28.229zM561.554 395.73c-11.232-19.036-21.029-39.061-34.019-56.74-15.072-20.501-32.222-39.629-49.794-58.091-24.15-25.376-32.861-56.655-35.619-89.815-1.947-23.361 3.135-47.769-1.618-70.301-4.177-19.792-1.468-36.954 3.535-54.993 0.713-2.567 2.672-4.807 6.044-10.643 1.575 7.578 3.423 11.52 3.011 15.223-6.628 59.645 21.451 106.35 57.891 148.517 41.454 47.98 58.046 102.959 54.801 165.127-0.252 4.151-0.999 8.041-2.188 11.726 0.49-1.628-0.987-0.957-2.055-0.006zM621.885 371.262c42.332-56.262 14.012-104.419-17.239-157.788l83.116 21.226-11.615-27.236c21.915 1.711 50.337 30.142 51.573 51.001 0.481 8.225 3.228 16.308 4.946 24.463 7.557-3.611 15.178-7.106 22.641-10.898 2.681-1.363 5.011-3.438 9.678-6.71-1.914 20.083-6.746 36.858-22.427 46.284-37.207 22.368-75.326 43.216-113.078 64.677l-7.587-5.021zM855.761 400.247c-17.091 80.077-106.976 128.561-151.394 122.115 40.445-54.061 109.514-71.133 151.394-122.115zM760.426 559.27c-7.66 23.326-29.62 29.459-49.205 31.724-14.212 1.639-31.227-5.79-44.215-13.724-9.428-5.749-0.354-13.732 7.222-14.886 27.815-4.265 55.827-7.374 83.756-10.91l2.438 7.804zM695.238 615.766c-17.418 6.387-33.824 11.053-35.898 31.585-0.194 1.923-8.085 5.183-11.499 4.307-21.501-5.567-25.801-23.962-9.724-39.333 8.633-8.255 44.521-7.261 57.118 3.442z" fill="#2c2c2c" p-id="7111"></path></svg>