<svg t="1572431568240" class="icon" viewBox="0 0 1026 1024" version="1.1" xmlns="http://www.w3.org/2000/svg" p-id="2701" width="200" height="200">
	<path d="M670.435658 626.260411 461.499309 626.260411c-13.195492 0-23.89691-10.70041-23.89691-23.900944 0-13.195492 10.70041-23.89691 23.89691-23.89691l208.937357 0c9.86132 0 17.889149-8.022786 17.889149-17.889149L688.325815 268.065948c0-9.865355-8.027829-17.889149-17.889149-17.889149l-543.229868 0c-9.865355 0-17.889149 8.022786-17.889149 17.889149L109.317649 560.574416c0 9.865355 8.022786 17.889149 17.889149 17.889149 13.195492 0 23.89691 10.70041 23.89691 23.89691 0 13.200534-10.70041 23.900944-23.89691 23.900944-36.221039 0-65.685995-29.465964-65.685995-65.685995L61.520803 268.065948c0-36.221039 29.464956-65.685995 65.685995-65.685995l543.229868 0c36.220031 0 65.684987 29.464956 65.684987 65.685995L736.121653 560.574416C736.121653 596.794447 706.655688 626.260411 670.435658 626.260411L670.435658 626.260411zM670.435658 626.260411" p-id="2702" fill="#666"></path>
	<path d="M879.372006 835.191718 336.138104 835.191718c-36.217005 0-65.681961-29.464956-65.681961-65.681961L270.456143 476.998263c0-36.217005 29.464956-65.681961 65.681961-65.681961l208.93534 0c13.200534 0 23.89691 10.70041 23.89691 23.89691 0 13.199526-10.696376 23.894893-23.89691 23.894893l-208.93534 0c-9.862329 0-17.890158 8.027829-17.890158 17.890158l0 292.511494c0 9.862329 8.027829 17.890158 17.890158 17.890158l543.232894 0c9.86132 0 17.889149-8.027829 17.889149-17.890158L897.260147 476.998263c0-9.862329-8.027829-17.890158-17.889149-17.890158-13.200534 0-23.900944-10.696376-23.900944-23.894893 0-13.195492 10.70041-23.89691 23.900944-23.89691 36.217005 0 65.681961 29.464956 65.681961 65.681961l0 292.511494C945.053968 805.726762 915.588003 835.191718 879.372006 835.191718L879.372006 835.191718zM879.372006 835.191718" p-id="2703" fill="#888"></path>
</svg>
